# xmcd CD database file
#
# Track frame offsets:
#	150
#	17273
#	51788
#	66020
#	104715
#	119733
#	158765
#	178693
#	211648
#	230230
#
# Disc length: 3531 seconds
#
# Revision: 0
# Processed by: cddbd v1.5.1PL2 Copyright (c) Steve Scherf et al.
# Submitted via: CDex 1.51
#
DISCID=860dc90a
DTITLE=Various Artist - 全日本吹奏楽2003 金賞団体の競演 Disc6
DYEAR=2003
DGENRE=Classical
TTITLE0=課題曲V：マーチ「列車で行こう」/川村昌樹/川越奏和奏友会吹奏楽団(指揮：佐藤正人)
TTITLE1=エクスピエイション〜贖罪〜/天野正道/川越奏和奏友会吹奏楽団(指揮：佐藤正人)
TTITLE2=課題曲IV：マーチ「ベスト・フレンド」/松浦伸吾/ウインドアンサンブルドゥ・ノール(指揮：仲田守)
TTITLE3=バレエ音楽「青銅の騎士」より叙情的情景第弐(逢瀬)、円舞曲、嵐、終曲/R.グリエール(arr.仲田守)/ウインドアンサンブルドゥ・ノール(指揮：仲田守)
TTITLE4=課題曲IV：マーチ「ベスト・フレンド」/松浦伸吾/創価グロリア吹奏楽団(指揮：佐川聖二)
TTITLE5=ラ・フォルム・ドゥ・シャク・アムール・ションジュ・コム・ル・カレイドスコープ/天野正道/創価グロリア吹奏楽団(指揮：佐川聖二)
TTITLE6=課題曲I：ウィナーズ〜吹奏楽のための行進曲/諏訪雅彦/川口市・アンサンブルリベルテ吹奏楽団(指揮：福本信太郎)
TTITLE7=ハリソンの夢/ピーター・グレイアム/川口市・アンサンブルリベルテ吹奏楽団(指揮：福本信太郎)
TTITLE8=課題曲I：ウィナーズ〜吹奏楽のための行進曲/諏訪雅彦/横浜ブラスオルケスター(指揮：中村睦郎)
TTITLE9=バレエ音楽「ガイーヌ」より序奏、友情の踊り、アイシェの孤独、剣の舞、収穫祭/アラン・ハチャトゥリャン(arr.中村睦郎)/横浜ブラスオルケスター(指揮：中村睦郎)
EXTD=YEAR: 2003
EXTT0=
EXTT1=
EXTT2=
EXTT3=
EXTT4=
EXTT5=
EXTT6=
EXTT7=
EXTT8=
EXTT9=
PLAYORDER=
